<svg width="25" height="30" viewBox="0 0 25 30" fill="none" xmlns="http://www.w3.org/2000/svg">
<path d="M10.5074 30L8.61362 29.8832C6.33982 29.7879 4.08114 29.4723 1.87044 28.9408C1.47425 28.8396 1.07806 28.6994 0.681873 28.567C0.544661 28.5218 0.422604 28.4406 0.329016 28.3322C0.235427 28.2237 0.173847 28.0921 0.150943 27.9517C0.0580933 27.5819 0.00764189 27.2032 0.000436611 26.8224C-0.0107775 25.0446 0.194066 23.2719 0.610585 21.5419C0.886347 20.3615 1.37762 19.24 2.06061 18.2319C2.58672 17.5871 3.29958 17.1146 4.10492 16.8767C5.15878 16.4795 6.1968 16.0512 7.27444 15.6384C7.39694 15.5933 7.51185 15.5303 7.61521 15.4515C7.88462 15.2023 8.11441 15.249 8.40759 15.4515C8.47237 15.4918 8.52489 15.5485 8.55974 15.6157C8.59459 15.6828 8.61048 15.7579 8.60568 15.8331C8.60568 16.9001 8.55809 17.9749 8.55016 19.0497C8.54807 19.2139 8.57495 19.3773 8.62948 19.5325L11.9574 28.271C11.9751 28.3268 11.9962 28.3814 12.0208 28.4345C12.0487 28.5445 12.1129 28.6422 12.2031 28.7126C12.2934 28.7831 12.4048 28.8222 12.52 28.824C12.641 28.826 12.7592 28.7879 12.8555 28.7158C12.9519 28.6438 13.0207 28.542 13.0509 28.4268L13.8433 26.3785C14.707 24.1043 15.5786 21.8301 16.4344 19.5559C16.498 19.3945 16.5302 19.2228 16.5295 19.0497C16.5295 17.9749 16.5294 16.9001 16.466 15.8253C16.466 15.4748 16.7355 15.4203 16.9257 15.2957C16.9906 15.2815 17.0578 15.2804 17.1232 15.2924C17.1886 15.3045 17.2507 15.3294 17.306 15.3658C18.3833 15.9734 19.5296 16.4544 20.7212 16.7989C21.3575 16.9743 21.9455 17.2879 22.442 17.7166C22.9384 18.1452 23.3307 18.678 23.5896 19.2755C24.3029 20.8227 24.7346 22.4807 24.8654 24.1744C24.9525 25.1946 24.9683 26.2227 25 27.2429C24.9889 27.4486 24.9544 27.6524 24.897 27.8504C24.8587 28.033 24.7707 28.2019 24.6423 28.3391C24.5139 28.4763 24.35 28.5766 24.1681 28.6293C22.3689 29.1991 20.5067 29.5547 18.6214 29.6885C17.3298 29.8131 16.0303 29.8676 14.7308 29.9455C14.6533 29.9565 14.5765 29.9721 14.501 29.9922L10.5074 30Z" fill="white"/>
<path d="M18.6373 5.1164C18.5026 5.76283 18.3679 6.40927 18.2253 7.0557C18.2073 7.12688 18.2044 7.2009 18.2167 7.27322C18.2289 7.34555 18.2561 7.41464 18.2966 7.47625C18.4469 7.74646 18.5285 8.04842 18.5343 8.35633C18.5529 9.0636 18.357 9.76033 17.9717 10.3579C17.9254 10.4336 17.8982 10.5191 17.8924 10.6072C17.5476 12.1543 16.7357 13.5631 15.5629 14.6493C13.6374 16.3783 11.5297 16.4873 9.50908 14.7583C8.23019 13.6826 7.36357 12.2098 7.05272 10.5838C7.04849 10.5049 7.0268 10.4278 6.98927 10.3579C6.55319 9.65723 6.34838 8.84108 6.40291 8.02144C6.40505 7.81717 6.47148 7.61855 6.59308 7.45289C6.64007 7.39286 6.67176 7.32269 6.68555 7.24817C6.69933 7.17366 6.69478 7.09698 6.6723 7.02454C6.39201 6.12404 6.33498 5.1707 6.50593 4.24412C6.76571 2.95213 7.50873 1.80275 8.58835 1.02275C9.66796 0.242753 11.0057 -0.111227 12.3378 0.0306554C13.9911 0.219734 15.5649 0.832045 16.902 1.80638C17.4271 2.17932 17.8527 2.67158 18.1425 3.24116C18.4322 3.81074 18.5775 4.44076 18.5659 5.07747L18.6373 5.1164Z" fill="white"/>
<path d="M12.2507 18.9328L10.9194 16.9234C11.9272 17.239 13.0099 17.239 14.0177 16.9234L12.7102 18.8939C13.0668 19.2833 13.4075 19.6338 13.7245 20.0076C13.812 20.1127 13.8572 20.2458 13.8513 20.3814C13.4551 22.801 13.051 25.2232 12.6389 27.6479C12.606 27.7423 12.5549 27.8295 12.4884 27.9049C12.433 27.8193 12.3299 27.7414 12.314 27.6401L11.1017 20.4048C11.0839 20.3255 11.0884 20.243 11.1149 20.1661C11.1414 20.0892 11.189 20.0209 11.2523 19.9687C11.5613 19.6649 11.9099 19.3067 12.2507 18.9328Z" fill="white"/>
</svg>
