<svg width="15" height="14" viewBox="0 0 15 14" fill="none" xmlns="http://www.w3.org/2000/svg">
<path d="M1.51753 6.23768C1.55418 6.02697 1.57453 5.87095 1.60304 5.71502C1.77524 4.73563 2.14972 3.80623 2.70076 2.99023C3.25181 2.17423 3.96639 1.49096 4.79599 0.98687C5.89866 0.295593 7.1731 -0.0458328 8.46144 0.00494148C9.97693 0.0582612 11.4313 0.636737 12.5908 1.6478C13.7504 2.65886 14.548 4.04387 14.8557 5.58025C15.1857 7.19882 14.9454 8.88605 14.1784 10.3374C13.4113 11.7888 12.1681 12.9085 10.673 13.4943C8.20493 14.4636 5.91189 14.0253 3.85516 12.3017C3.72484 12.1921 3.60269 12.07 3.48051 11.9478C3.42159 11.8917 3.37409 11.8241 3.34071 11.7488C3.30732 11.6735 3.28867 11.592 3.28602 11.5093C3.28336 11.4265 3.29671 11.3441 3.32519 11.2667C3.35368 11.1893 3.39687 11.1186 3.45207 11.0586C3.50603 10.9959 3.57165 10.9451 3.64516 10.9095C3.71868 10.8738 3.79848 10.854 3.87962 10.8512C3.96077 10.8485 4.04165 10.8628 4.11727 10.8934C4.19288 10.924 4.26168 10.97 4.31951 11.029C4.68645 11.3972 5.09699 11.7158 5.54133 11.9772C6.18231 12.3493 6.88863 12.5856 7.61885 12.6721C8.34907 12.7585 9.08855 12.6936 9.79422 12.4809C10.4999 12.2683 11.1574 11.9122 11.7286 11.4335C12.2997 10.9549 12.773 10.3632 13.1206 9.69315C13.5174 8.92635 13.7401 8.07603 13.7717 7.20685C13.8033 6.33767 13.643 5.47259 13.303 4.67713C12.9629 3.88166 12.4522 3.17673 11.8095 2.61615C11.1668 2.05556 10.409 1.65395 9.59376 1.44182C8.85086 1.25027 8.07766 1.22032 7.32294 1.35355C6.56823 1.48678 5.84832 1.78034 5.20883 2.21593C4.56933 2.65152 4.02402 3.21967 3.60738 3.8843C3.19074 4.54893 2.91191 5.29558 2.78826 6.07738C2.78826 6.1111 2.78826 6.14905 2.78826 6.20805C2.82277 6.18398 2.85535 6.15724 2.8859 6.128C3.03252 5.98051 3.17092 5.82456 3.32161 5.68128C3.43877 5.57004 3.59341 5.5105 3.75235 5.51522C3.91129 5.51994 4.06215 5.58858 4.17295 5.70659C4.28167 5.82223 4.34238 5.97716 4.34238 6.1385C4.34238 6.29983 4.28167 6.45497 4.17295 6.57061C3.65164 7.12688 3.12213 7.67046 2.5886 8.21409C2.5337 8.27142 2.4683 8.31678 2.3963 8.34784C2.3243 8.3789 2.24721 8.39496 2.1692 8.39496C2.09119 8.39496 2.0139 8.3789 1.9419 8.34784C1.8699 8.31678 1.80451 8.27142 1.7496 8.21409C1.20657 7.67748 0.682602 7.13512 0.177585 6.58728C0.121311 6.52967 0.0766256 6.46122 0.0461363 6.38562C0.015647 6.31003 0 6.22884 0 6.14693C0 6.06502 0.015647 5.98404 0.0461363 5.90845C0.0766256 5.83286 0.121311 5.7642 0.177585 5.70659C0.291092 5.59103 0.443916 5.52633 0.603152 5.52633C0.762389 5.52633 0.915213 5.59103 1.02872 5.70659C1.19163 5.8583 1.33425 6.0354 1.51753 6.23768Z" fill="white"/>
<path d="M7.61424 5.89631C7.61424 5.20098 7.61424 4.50565 7.61424 3.78924C7.61612 3.63835 7.6708 3.49315 7.76816 3.38079C7.86552 3.26843 7.99905 3.19645 8.14381 3.17811C8.28231 3.15914 8.42288 3.19086 8.54114 3.26783C8.6594 3.34479 8.74785 3.46214 8.79131 3.59952C8.82268 3.70168 8.83775 3.80842 8.83606 3.91559C8.83606 5.13347 8.83606 6.34721 8.83606 7.5651C8.83358 7.61307 8.84152 7.66098 8.85912 7.70543C8.87673 7.74989 8.90357 7.78973 8.93787 7.8221C9.36551 8.24352 9.7932 8.6987 10.2168 9.1454C10.3101 9.23621 10.3731 9.35541 10.3965 9.48575C10.42 9.61608 10.4026 9.75066 10.347 9.87012C10.2989 9.98488 10.2173 10.0812 10.1136 10.1454C10.0098 10.2097 9.88921 10.2387 9.76873 10.2284C9.61904 10.2094 9.47772 10.1467 9.36145 10.0473C8.82385 9.51209 8.29851 8.95988 7.77313 8.41204C7.71443 8.3483 7.66891 8.27285 7.6395 8.19022C7.61008 8.1076 7.59741 8.0197 7.60211 7.93178C7.60211 7.2533 7.60211 6.57047 7.60211 5.89199L7.61424 5.89631Z" fill="white"/>
</svg>
