<svg width="30" height="30" viewBox="0 0 30 30" fill="none" xmlns="http://www.w3.org/2000/svg">
<path d="M29.9772 27.788C29.9772 27.2783 29.7054 27.0158 29.1961 27.0063C28.9719 27.0063 28.7495 27.0063 28.4759 27.0063V26.6259C28.4759 21.3308 28.4759 16.0357 28.4759 10.7405C28.484 10.526 28.47 10.3112 28.4341 10.0996C28.2972 9.44527 27.8639 9.11435 26.9859 8.98121C26.9859 8.72064 26.9859 8.45247 26.9859 8.18429C26.9908 7.83296 26.9737 7.48162 26.9346 7.13244C26.896 6.8432 26.7595 6.57601 26.5479 6.37527C26.3362 6.17453 26.0622 6.05242 25.7716 6.02933C25.3364 5.98368 24.8955 5.9951 24.4565 5.9932C23.6279 5.9932 22.7974 5.9932 21.9688 5.9932C21.8364 5.99471 21.7071 5.95333 21.6002 5.87526C19.4463 3.97327 17.3008 2.0662 15.1634 0.154072C15.119 0.106873 15.0795 0.0552394 15.0456 0H14.9278C14.8692 0.0721776 14.8057 0.14024 14.7377 0.203572C12.4078 2.07132 10.0747 3.93584 7.7385 5.79725C7.58029 5.91612 7.38896 5.98261 7.19118 5.98744C6.33219 6.00837 5.48081 5.98746 4.61421 5.99887C3.54428 5.99887 2.99696 6.56002 2.99316 7.63274C2.99316 8.0797 2.99316 8.5266 2.99316 8.98688L2.7119 9.02681C2.3989 9.06473 2.10877 9.21033 1.89109 9.4386C1.67341 9.66687 1.54169 9.96365 1.51843 10.2783C1.50323 10.4533 1.50323 10.6283 1.50323 10.8052C1.50323 16.0699 1.50323 21.3353 1.50323 26.6012V26.9987C0.946409 27.0748 0.279361 26.8085 0 27.5503V29.4675C0.190042 29.8783 0.505511 30 0.950209 30C10.3256 29.9924 19.6959 29.9924 29.0612 30C29.7624 30 30 29.7661 30 29.0757C29.9791 28.6477 29.9848 28.2179 29.9772 27.788ZM14.5515 2.9842C15.4485 2.99561 16.0471 3.61572 16.0357 4.51916C16.0433 4.71842 16.0086 4.91699 15.9341 5.10193C15.8596 5.28686 15.7469 5.454 15.6033 5.59228C15.4598 5.73056 15.2887 5.83687 15.1012 5.90433C14.9137 5.97178 14.7141 5.99879 14.5154 5.98364C14.318 5.98294 14.1227 5.94286 13.941 5.8656C13.7593 5.78834 13.5948 5.67551 13.4573 5.53377C13.3197 5.39204 13.2118 5.2242 13.14 5.04017C13.0681 4.85614 13.0337 4.65957 13.0388 4.46205C13.0297 4.26246 13.0629 4.06326 13.1362 3.87743C13.2096 3.6916 13.3213 3.52338 13.4642 3.38382C13.607 3.24427 13.7777 3.13656 13.9651 3.06769C14.1525 2.99883 14.3524 2.97032 14.5515 2.9842ZM12.0106 12.0168H17.959V16.4846H12.0106V12.0168ZM8.77993 23.9993C7.39453 23.9993 6.01102 23.9993 4.62562 23.9993C4.58423 23.9949 4.54344 23.9859 4.50399 23.9726V19.5182H8.96807C8.96807 19.6 8.98708 19.6666 8.98708 19.7312C8.98708 21.0626 8.98708 22.4073 8.98708 23.7444C8.99088 23.8947 8.98898 24.0068 8.78183 24.0049L8.77993 23.9993ZM8.68871 16.4997C7.38312 16.4864 6.07564 16.4997 4.76815 16.4997H4.51349V12.0092H8.97187C8.97187 12.1043 8.98708 12.1994 8.98708 12.2906C8.98708 13.5878 8.98708 14.8869 8.98708 16.1859C8.99658 16.4199 8.94337 16.5074 8.69061 16.5055L8.68871 16.4997ZM17.9761 26.8142C17.9738 26.8689 17.9687 26.9236 17.9608 26.9778H11.984V25.7034C11.984 24.6193 11.9726 23.5352 11.984 22.453C11.9914 21.7328 12.258 21.0395 12.7348 20.5001C13.2116 19.9607 13.8667 19.6115 14.58 19.5163C15.2688 19.4235 15.9684 19.574 16.5581 19.942C17.1479 20.3101 17.5909 20.8725 17.8107 21.5324C17.908 21.8186 17.96 22.1184 17.9647 22.4207C17.9856 23.8909 17.978 25.3554 17.978 26.8199L17.9761 26.8142ZM25.4637 23.9974H25.1767C23.8788 23.9974 22.5808 23.9974 21.2847 23.9974C21.0433 23.9974 20.9692 23.9346 20.9711 23.6873C20.9825 22.3883 20.9711 21.0892 20.9711 19.7921V19.5106H25.458L25.4637 23.9974ZM25.4637 16.4941H25.1767C23.8788 16.4941 22.5808 16.4941 21.2828 16.4941C21.0414 16.4941 20.9692 16.4294 20.9711 16.1841C20.9825 14.8869 20.9711 13.5878 20.9711 12.2888V12.0092H25.458L25.4637 16.4941Z" fill="white"/>
</svg>
